<?xml version="1.0" encoding="UTF-8"?>
<svg width="279px" height="100px" viewBox="0 0 279 100" version="1.1" xmlns="http://www.w3.org/2000/svg" xmlns:xlink="http://www.w3.org/1999/xlink">
    <!-- Generator: Sketch 59.1 (86144) - https://sketch.com -->
    <title>Group</title>
    <desc>Created with Sketch.</desc>
    <g id="Symbols" stroke="none" stroke-width="1" fill="none" fill-rule="evenodd">
        <g id="Nav-Bar" transform="translate(-230.000000, -31.000000)">
            <g id="Group" transform="translate(230.000000, 31.000000)">
                <path d="M78.8360702,85.9913034 C78.4779496,85.5954131 78.5107841,84.9792226 78.9076536,84.6227588 C79.3112531,84.2597916 79.9228725,84.2923083 80.2873153,84.6942954 C80.6517581,85.0893727 80.6189235,85.7057665 80.2157319,86.0691401 C80.0270864,86.2313169 79.7925541,86.3154538 79.5649558,86.3154538 C79.2982008,86.3154538 79.0312419,86.2053036 78.8360702,85.9913034" id="Fill-1" fill="#B5D152"></path>
                <path d="M61.7347913,95.3095599 C61.5073969,94.6281328 61.8844841,93.895492 62.5680947,93.6751917 C63.2510935,93.4548913 63.9867092,93.824565 64.2077813,94.5116826 C64.4290575,95.1922968 64.0515624,95.9251408 63.3683597,96.1462541 C63.2380413,96.1846643 63.1014008,96.2043776 62.9714903,96.2043776 C62.4184019,96.2043776 61.9105885,95.860514 61.7347913,95.3095599" id="Fill-2" fill="#B5D152"></path>
                <path d="M43.7359674,98.5187503 L43.7359674,98.5187503 C42.8443369,98.4283134 42.1935607,97.6310457 42.2849264,96.7425282 C42.3824102,95.8479138 43.1761491,95.1994098 44.0745097,95.29635 C44.9657324,95.3873967 45.6163046,96.1846643 45.5255508,97.0731819 C45.4343891,97.9096728 44.7314041,98.5260666 43.9117647,98.5260666 C43.8530297,98.5260666 43.7944986,98.5260666 43.7359674,98.5187503" id="Fill-3" fill="#B5D152"></path>
                <path d="M24.6956163,92.7023341 C23.7585068,92.1641835 23.4397469,90.9775289 23.979579,90.0438945 C24.519819,89.116357 25.7108352,88.7989131 26.6477407,89.3374702 C27.5783241,89.868711 27.897084,91.0616657 27.3635741,91.9957066 C26.9991313,92.6181972 26.342033,92.9620608 25.6651524,92.9620608 C25.3398663,92.9620608 25.001528,92.877924 24.6956163,92.7023341" id="Fill-4" fill="#B5D152"></path>
                <path d="M9.57277018,79.5775969 C8.83756243,78.566329 9.05863461,77.1459609 10.0738535,76.4068168 C11.0890724,75.6741759 12.514213,75.8944762 13.2557429,76.9065571 C13.9976807,77.917825 13.7766086,79.3383962 12.7613896,80.0771339 C12.351468,80.3691741 11.8828113,80.5116377 11.4145625,80.5116377 C10.7115774,80.5116377 10.0218485,80.1872841 9.57277018,79.5775969" id="Fill-5" fill="#B5D152"></path>
                <path d="M0.736001306,61.4081042 C0.397459041,59.8326724 1.4059479,58.282441 2.98730737,57.9454871 C4.56887078,57.6150367 6.1237179,58.6198012 6.46205623,60.1954363 C6.80059849,61.7710713 5.78537958,63.3213028 4.20422405,63.6580534 C4.00252628,63.7037799 3.79450633,63.7234931 3.59260462,63.7234931 C2.23904738,63.7234931 1.02886076,62.7829489 0.736001306,61.4081042" id="Fill-6" fill="#B5D152"></path>
                <path d="M2.83761458,45.1904236 C0.904864556,44.7884365 -0.331426533,42.8949512 0.0784951245,40.9622426 C0.481890666,39.042744 2.38201011,37.8040627 4.31476014,38.2125532 C6.24730622,38.6147435 7.48400519,40.5082289 7.08060965,42.4344341 C6.72269298,44.1139192 5.23881737,45.2684636 3.57955239,45.2684636 C3.33869792,45.2684636 3.09152128,45.2424503 2.83761458,45.1904236" id="Fill-7" fill="#B5D152"></path>
                <path d="M8.87631124,27.649925 C6.98292185,26.2878837 6.56627014,23.6483444 7.93287961,21.7682722 C9.30601519,19.881087 11.9541907,19.4593866 13.8416658,20.8342313 C15.7350552,22.1962726 16.1517069,24.834999 14.7848935,26.7156809 C13.9522019,27.8570154 12.6637018,28.4534928 11.3556235,28.4534928 C10.4968274,28.4534928 9.62497911,28.1943757 8.87631124,27.649925" id="Fill-8" fill="#B5D152"></path>
                <path d="M21.3640341,13.8764806 C20.0104769,11.5549948 20.8042157,8.57870491 23.1338352,7.22987351 C25.4634546,5.88104211 28.4501724,6.67200969 29.8037296,8.99349547 C31.1574908,11.3149812 30.3633441,14.2975712 28.0339285,15.6401025 C27.2660902,16.0880194 26.4199385,16.3018164 25.5870429,16.3018164 C23.9081996,16.3018164 22.268309,15.4324024 21.3640341,13.8764806" id="Fill-9" fill="#B5D152"></path>
                <path d="M38.3086863,6.08874223 C37.9834002,3.05981602 40.1894313,0.349553014 43.228358,0.031702733 C46.2607586,-0.292447649 48.9872474,1.90608454 49.3062114,4.93440105 C49.6249713,7.96251434 47.4256703,10.6729806 44.3867436,10.9908309 C44.191368,11.0103409 43.9961963,11.0231443 43.8012286,11.0231443 C41.0029525,11.0231443 38.6082758,8.92195883 38.3086863,6.08874223" id="Fill-10" fill="#B5D152"></path>
                <path d="M60.9802091,13.3320299 C57.7265324,12.2876356 55.9434752,8.81180867 56.9913247,5.57640172 C58.0389702,2.33408498 61.5267713,0.557253133 64.7741258,1.60794748 C68.0208685,2.65132557 69.8104519,6.12105565 68.7562802,9.35625937 C67.9168586,11.9697853 65.4895513,13.6301669 62.8803286,13.6301669 C62.2489269,13.6301669 61.611203,13.532617 60.9802091,13.3320299" id="Fill-11" fill="#B5D152"></path>
                <path d="M74.9250913,22.0664093 C72.1209009,19.5567333 71.8863686,15.2513253 74.4046336,12.4498124 C76.9231025,9.65520935 81.2435952,9.42149591 84.0551275,11.9311718 C86.8597259,14.4471478 87.0938503,18.7525559 84.5753813,21.5477686 C83.2285542,23.0453637 81.3608613,23.8105212 79.4868464,23.8105212 C77.860008,23.8105212 76.2266436,23.2335539 74.9250913,22.0664093" id="Fill-12" fill="#B5D152"></path>
                <path d="M99.3682507,87.0257394 C97.2635783,87.0257394 95.8319116,85.6110618 95.8319116,83.3607062 C95.8319116,81.2536271 97.39614,79.7726968 99.3399029,79.7726968 C100.354102,79.7726968 101.122348,80.0706306 101.833287,80.8118071 L100.979793,81.8210427 C100.51542,81.3499577 99.9845608,81.1190894 99.3399029,81.1190894 C98.154801,81.1190894 97.39614,82.0714209 97.39614,83.3607062 C97.39614,84.803023 98.0885202,85.6787371 99.3682507,85.6787371 C100.240507,85.6787371 100.667152,85.3035762 101.112763,84.8804532 L101.985223,85.890705 C101.340157,86.5926582 100.572319,87.0257394 99.3682507,87.0257394" id="Fill-13" fill="#828683"></path>
                <path d="M106.83739,82.1293412 C106.770702,81.908228 106.69504,81.6293977 106.685454,81.5716806 C106.676073,81.6001327 106.609792,81.888718 106.543511,82.1293412 L106.02183,83.8415462 L107.349079,83.8415462 L106.83739,82.1293412 Z M108.259268,86.9098988 L107.728409,85.1397735 L105.623941,85.1397735 L105.083293,86.9098988 L103.480927,86.9098988 L105.955753,79.8879277 L107.41536,79.8879277 L109.928118,86.9098988 L108.259268,86.9098988 L108.259268,86.9098988 Z" id="Fill-14" fill="#828683"></path>
                <polyline id="Fill-15" fill="#828683" points="111.964062 86.9098988 111.964062 79.8879277 113.480976 79.8879277 113.480976 85.6110618 115.946013 85.6110618 115.946013 86.9098988 111.964062 86.9098988"></polyline>
                <polygon id="Fill-16" fill="#828683" points="118.172642 86.9098988 119.689556 86.9098988 119.689556 79.8879277 118.172642 79.8879277"></polygon>
                <polyline id="Fill-17" fill="#828683" points="123.812634 81.1865615 123.812634 82.8607626 125.860611 82.8607626 125.860611 84.1587868 123.812634 84.1587868 123.812634 86.9098988 122.29572 86.9098988 122.29572 79.8879277 126.002961 79.8879277 126.002961 81.1865615 123.812634 81.1865615"></polyline>
                <path d="M131.57606,81.1190894 C130.390755,81.1190894 129.566017,82.1968132 129.566017,83.370258 C129.566017,84.65934 130.476206,85.6787371 131.557094,85.6787371 C132.808477,85.6787371 133.567138,84.5534577 133.567138,83.370258 C133.567138,82.1390962 132.780129,81.1190894 131.57606,81.1190894 Z M131.557094,87.0257394 C129.414489,87.0257394 128.001584,85.3704386 128.001584,83.370258 C128.001584,81.3499577 129.433251,79.7726968 131.57606,79.7726968 C133.737632,79.7726968 135.131366,81.2828921 135.131366,83.370258 C135.131366,85.3999068 133.699699,87.0257394 131.557094,87.0257394 L131.557094,87.0257394 Z" id="Fill-18" fill="#828683"></path>
                <path d="M139.888293,81.1865615 L138.921,81.1865615 L138.921,82.8794597 L139.888293,82.8794597 C140.419152,82.8794597 140.75076,82.5329541 140.75076,81.9850485 C140.75076,81.4942503 140.371633,81.1865615 139.888293,81.1865615 Z M140.845796,86.9098988 L138.921,83.591168 L138.921,86.9098988 L137.404086,86.9098988 L137.404086,79.8879277 L139.888293,79.8879277 C141.338722,79.8879277 142.267674,80.7731935 142.267674,81.9850485 C142.267674,83.0335074 141.632601,83.7257056 140.722412,83.9760838 L142.561757,86.9098988 L140.845796,86.9098988 L140.845796,86.9098988 Z" id="Fill-19" fill="#828683"></path>
                <path d="M149.461901,86.9098988 L146.409106,82.8215394 C146.323859,82.6967568 146.247789,82.5622191 146.238408,82.5427091 C146.238408,82.5524641 146.25717,82.7256153 146.25717,82.8892147 L146.25717,86.9098988 L144.74046,86.9098988 L144.74046,79.8879277 L146.048946,79.8879277 L149.101741,83.9376735 C149.19637,84.0626594 149.26265,84.1971971 149.272236,84.2262588 C149.272236,84.2165038 149.253269,84.0437591 149.253269,83.8702015 L149.253269,79.8879277 L150.770183,79.8879277 L150.770183,86.9098988 L149.461901,86.9098988" id="Fill-20" fill="#828683"></path>
                <polygon id="Fill-21" fill="#828683" points="153.375327 86.9098988 154.892241 86.9098988 154.892241 79.8879277 153.375327 79.8879277"></polygon>
                <path d="M160.286076,82.1293412 C160.219387,81.908228 160.143725,81.6293977 160.13414,81.5716806 C160.124759,81.6001327 160.058478,81.888718 159.992197,82.1293412 L159.470719,83.8415462 L160.797764,83.8415462 L160.286076,82.1293412 Z M161.707954,86.9098988 L161.176891,85.1397735 L159.072422,85.1397735 L158.531978,86.9098988 L156.929613,86.9098988 L159.404235,79.8879277 L160.864045,79.8879277 L163.376804,86.9098988 L161.707954,86.9098988 L161.707954,86.9098988 Z" id="Fill-22" fill="#828683"></path>
                <polygon id="Fill-23" fill="#828683" points="168.730054 86.9098988 170.246968 86.9098988 170.246968 79.8879277 168.730054 79.8879277"></polygon>
                <path d="M177.574981,86.9098988 L174.522186,82.8215394 C174.436939,82.6967568 174.360869,82.5622191 174.351487,82.5427091 C174.351487,82.5524641 174.370454,82.7256153 174.370454,82.8892147 L174.370454,86.9098988 L172.85354,86.9098988 L172.85354,79.8879277 L174.162026,79.8879277 L177.214821,83.9376735 C177.30945,84.0626594 177.37573,84.1971971 177.385316,84.2262588 C177.385316,84.2165038 177.366349,84.0437591 177.366349,83.8702015 L177.366349,79.8879277 L178.883263,79.8879277 L178.883263,86.9098988 L177.574981,86.9098988" id="Fill-24" fill="#828683"></path>
                <path d="M183.469695,87.0257394 C182.512192,87.0257394 181.810634,86.6694788 181.14701,86.1500253 L181.934018,85.072708 C182.341493,85.3999068 182.929251,85.6787371 183.498247,85.6787371 C184.190219,85.6787371 184.379884,85.4381138 184.379884,85.0149909 C184.379884,84.3128344 183.11912,84.0724144 182.540743,83.7454188 C181.848771,83.3607062 181.298742,82.91787 181.298742,81.8023456 C181.298742,80.3592159 182.540743,79.7726968 183.763778,79.7726968 C184.417817,79.7726968 185.204826,79.955603 185.764033,80.3787259 L185.081442,81.5235153 C184.777977,81.2926471 184.266289,81.1190894 183.763778,81.1190894 C183.062221,81.1190894 182.815656,81.5235153 182.815656,81.8023456 C182.815656,82.4368268 183.697497,82.6292847 184.503065,82.9855453 C185.17607,83.2838856 185.896798,83.7643191 185.896798,84.9188635 C185.896798,86.2461527 184.967847,87.0257394 183.469695,87.0257394" id="Fill-25" fill="#828683"></path>
                <polyline id="Fill-26" fill="#828683" points="190.615996 81.1865615 190.615996 86.9098988 189.099694 86.9098988 189.099694 81.1865615 187.724927 81.1865615 187.724927 79.8879277 191.95385 79.8879277 191.95385 81.1865615 190.615996 81.1865615"></polyline>
                <polygon id="Fill-27" fill="#828683" points="194.178847 86.9098988 195.696169 86.9098988 195.696169 79.8879277 194.178847 79.8879277"></polygon>
                <polyline id="Fill-28" fill="#828683" points="200.815092 81.1865615 200.815092 86.9098988 199.29777 86.9098988 199.29777 81.1865615 197.923206 81.1865615 197.923206 79.8879277 202.152945 79.8879277 202.152945 81.1865615 200.815092 81.1865615"></polyline>
                <path d="M207.288183,87.0257394 C205.695403,87.0257394 204.331037,85.9866291 204.331037,84.0626594 L204.331037,79.8879277 L205.856516,79.8879277 L205.856516,84.0626594 C205.856516,85.0149909 206.454064,85.6982471 207.288183,85.6982471 C208.142696,85.6982471 208.815702,85.0149909 208.815702,84.0626594 L208.815702,79.8879277 L210.322827,79.8879277 L210.322827,84.0626594 C210.322827,85.9866291 208.901357,87.0257394 207.288183,87.0257394" id="Fill-29" fill="#828683"></path>
                <polyline id="Fill-30" fill="#828683" points="215.392803 81.1865615 215.392803 86.9098988 213.875481 86.9098988 213.875481 81.1865615 212.500918 81.1865615 212.500918 79.8879277 216.730657 79.8879277 216.730657 81.1865615 215.392803 81.1865615"></polyline>
                <polyline id="Fill-31" fill="#828683" points="218.955654 86.9098988 218.955654 79.8879277 222.985531 79.8879277 222.985531 81.1865615 220.472976 81.1865615 220.472976 82.8312944 222.806063 82.8312944 222.806063 84.1303347 220.472976 84.1303347 220.472976 85.6110618 223.12829 85.6110618 223.12829 86.9098988 218.955654 86.9098988"></polyline>
                <path d="M99.1761382,96.5811643 L98.0666985,96.5811643 L98.0666985,98.0816046 L99.1761382,98.0816046 C99.8870769,98.0816046 100.152608,97.793629 100.152608,97.3028307 C100.152608,96.8120325 99.8018295,96.5811643 99.1761382,96.5811643 Z M98.8063929,93.6573075 L98.0666985,93.6573075 L98.0666985,95.2831402 L98.8063929,95.2831402 C99.5079504,95.2831402 99.8681104,95.0037002 99.8681104,94.426936 C99.8681104,93.8400105 99.4793986,93.6573075 98.8063929,93.6573075 Z M99.1761382,99.3804416 L96.5497844,99.3804416 L96.5497844,92.3584705 L98.9485399,92.3584705 C100.399173,92.3584705 101.356677,93.0606269 101.356677,94.2436234 C101.356677,94.9461863 100.911065,95.5138052 100.313926,95.7446734 C101.110112,95.8599043 101.716837,96.5811643 101.716837,97.3894063 C101.716837,98.6492234 100.730985,99.3804416 99.1761382,99.3804416 L99.1761382,99.3804416 Z" id="Fill-32" fill="#828683"></path>
                <polyline id="Fill-33" fill="#828683" points="103.990372 99.3804416 103.990372 92.3584705 108.019841 92.3584705 108.019841 93.6573075 105.507286 93.6573075 105.507286 95.3018372 107.839557 95.3018372 107.839557 96.6006743 105.507286 96.6006743 105.507286 98.0816046 108.161784 98.0816046 108.161784 99.3804416 103.990372 99.3804416"></polyline>
                <polyline id="Fill-34" fill="#828683" points="114.521688 99.3804416 114.521688 96.5714093 112.113551 96.5714093 112.113551 99.3804416 110.596637 99.3804416 110.596637 92.3584705 112.113551 92.3584705 112.113551 95.2733852 114.521688 95.2733852 114.521688 92.3584705 116.038602 92.3584705 116.038602 99.3804416 114.521688 99.3804416"></polyline>
                <path d="M121.431417,94.599884 C121.364728,94.3787707 121.289066,94.0999404 121.279481,94.0420202 C121.2701,94.0708787 121.203819,94.359464 121.137538,94.599884 L120.615857,96.312089 L121.943105,96.312089 L121.431417,94.599884 Z M122.853295,99.3804416 L122.322232,97.6103163 L120.217764,97.6103163 L119.67732,99.3804416 L118.074954,99.3804416 L120.549576,92.3584705 L122.009386,92.3584705 L124.521941,99.3804416 L122.853295,99.3804416 L122.853295,99.3804416 Z" id="Fill-35" fill="#828683"></path>
                <path d="M128.796343,99.3804416 L127.34571,99.3804416 L125.07972,92.3584705 L126.634771,92.3584705 L127.980782,96.8412975 C128.037682,97.0240004 128.0852,97.2351555 128.0852,97.2351555 C128.0852,97.2351555 128.151685,97.0142455 128.198999,96.8412975 L129.53563,92.3584705 L131.052544,92.3584705 L128.796343,99.3804416" id="Fill-36" fill="#828683"></path>
                <polygon id="Fill-37" fill="#828683" points="133.088896 99.3804416 134.60581 99.3804416 134.60581 92.3584705 133.088896 92.3584705"></polygon>
                <path d="M140.454433,93.5898355 C139.269331,93.5898355 138.44439,94.667356 138.44439,95.8408007 C138.44439,97.130086 139.354579,98.1492799 140.435671,98.1492799 C141.687054,98.1492799 142.445714,97.0240004 142.445714,95.8408007 C142.445714,94.609639 141.658502,93.5898355 140.454433,93.5898355 Z M140.435671,99.496079 C138.292861,99.496079 136.880161,97.8411846 136.880161,95.8408007 C136.880161,93.8202972 138.311828,92.2434428 140.454433,92.2434428 C142.616005,92.2434428 144.009739,93.7534349 144.009739,95.8408007 C144.009739,97.8702463 142.578072,99.496079 140.435671,99.496079 L140.435671,99.496079 Z" id="Fill-38" fill="#828683"></path>
                <path d="M148.76687,93.6573075 L147.799577,93.6573075 L147.799577,95.3502057 L148.76687,95.3502057 C149.297524,95.3502057 149.629337,95.0037002 149.629337,94.4555913 C149.629337,93.9647931 149.25021,93.6573075 148.76687,93.6573075 Z M149.724373,99.3804416 L147.799577,96.061914 L147.799577,99.3804416 L146.282663,99.3804416 L146.282663,92.3584705 L148.76687,92.3584705 C150.217095,92.3584705 151.146251,93.2437363 151.146251,94.4555913 C151.146251,95.5042534 150.511178,96.1964516 149.600989,96.4466266 L151.440334,99.3804416 L149.724373,99.3804416 L149.724373,99.3804416 Z" id="Fill-39" fill="#828683"></path>
                <path d="M156.491751,94.599884 C156.425063,94.3787707 156.349401,94.0999404 156.339815,94.0420202 C156.330434,94.0708787 156.264153,94.359464 156.197872,94.599884 L155.676395,96.312089 L157.00344,96.312089 L156.491751,94.599884 Z M157.913629,99.3804416 L157.382566,97.6103163 L155.278098,97.6103163 L154.737858,99.3804416 L153.135288,99.3804416 L155.60991,92.3584705 L157.069721,92.3584705 L159.582479,99.3804416 L157.913629,99.3804416 L157.913629,99.3804416 Z" id="Fill-40" fill="#828683"></path>
                <polyline id="Fill-41" fill="#828683" points="161.618831 99.3804416 161.618831 92.3584705 163.135745 92.3584705 163.135745 98.0816046 165.600578 98.0816046 165.600578 99.3804416 161.618831 99.3804416"></polyline>
                <polyline id="Fill-42" fill="#828683" points="175.06936 99.3804416 175.06936 96.5714093 172.661223 96.5714093 172.661223 99.3804416 171.144309 99.3804416 171.144309 92.3584705 172.661223 92.3584705 172.661223 95.2733852 175.06936 95.2733852 175.06936 92.3584705 176.586274 92.3584705 176.586274 99.3804416 175.06936 99.3804416"></polyline>
                <polyline id="Fill-43" fill="#828683" points="179.191622 99.3804416 179.191622 92.3584705 183.221091 92.3584705 183.221091 93.6573075 180.708536 93.6573075 180.708536 95.3018372 183.040807 95.3018372 183.040807 96.6006743 180.708536 96.6006743 180.708536 98.0816046 183.363238 98.0816046 183.363238 99.3804416 179.191622 99.3804416"></polyline>
                <path d="M188.585558,94.599884 C188.518869,94.3787707 188.443207,94.0999404 188.433622,94.0420202 C188.424241,94.0708787 188.35796,94.359464 188.291475,94.599884 L187.769998,96.312089 L189.097246,96.312089 L188.585558,94.599884 Z M190.007436,99.3804416 L189.476373,97.6103163 L187.371905,97.6103163 L186.831461,99.3804416 L185.228891,99.3804416 L187.703717,92.3584705 L189.163527,92.3584705 L191.67649,99.3804416 L190.007436,99.3804416 L190.007436,99.3804416 Z" id="Fill-44" fill="#828683"></path>
                <polyline id="Fill-45" fill="#828683" points="193.711822 99.3804416 193.711822 92.3584705 195.229144 92.3584705 195.229144 98.0816046 197.694792 98.0816046 197.694792 99.3804416 193.711822 99.3804416"></polyline>
                <polyline id="Fill-46" fill="#828683" points="201.608423 93.6573075 201.608423 99.3804416 200.09314 99.3804416 200.09314 93.6573075 198.716537 93.6573075 198.716537 92.3584705 202.946276 92.3584705 202.946276 93.6573075 201.608423 93.6573075"></polyline>
                <polyline id="Fill-47" fill="#828683" points="209.097141 99.3804416 209.097141 96.5714093 206.688596 96.5714093 206.688596 99.3804416 205.171274 99.3804416 205.171274 92.3584705 206.688596 92.3584705 206.688596 95.2733852 209.097141 95.2733852 209.097141 92.3584705 210.614463 92.3584705 210.614463 99.3804416 209.097141 99.3804416"></polyline>
                <path d="M218.517181,99.496079 C217.560697,99.496079 216.85914,99.1398184 216.194292,98.6203649 L216.981504,97.543454 C217.389387,97.8702463 217.976737,98.1492799 218.545733,98.1492799 C219.239133,98.1492799 219.428798,97.9088599 219.428798,97.4855337 C219.428798,96.7833772 218.166402,96.5429572 217.589249,96.2157584 C216.897889,95.8310457 216.347248,95.3884128 216.347248,94.2728884 C216.347248,92.8297587 217.589249,92.2434428 218.810856,92.2434428 C219.465507,92.2434428 220.25272,92.4259425 220.811519,92.8492687 L220.130355,93.9940581 C219.826483,93.7631899 219.314591,93.5898355 218.810856,93.5898355 C218.111338,93.5898355 217.864569,93.9940581 217.864569,94.2728884 C217.864569,94.9073696 218.745595,95.0998275 219.551163,95.4558849 C220.224168,95.7544284 220.94408,96.2346587 220.94408,97.3894063 C220.94408,98.7166955 220.016148,99.496079 218.517181,99.496079" id="Fill-48" fill="#828683"></path>
                <path d="M226.395427,93.5898355 C225.210529,93.5898355 224.384567,94.667356 224.384567,95.8408007 C224.384567,97.130086 225.294145,98.1492799 226.377072,98.1492799 C227.627231,98.1492799 228.385892,97.0240004 228.385892,95.8408007 C228.385892,94.609639 227.598679,93.5898355 226.395427,93.5898355 Z M226.377072,99.496079 C224.233651,99.496079 222.820339,97.8411846 222.820339,95.8408007 C222.820339,93.8202972 224.252005,92.2434428 226.395427,92.2434428 C228.557203,92.2434428 229.95012,93.7534349 229.95012,95.8408007 C229.95012,97.8702463 228.518454,99.496079 226.377072,99.496079 L226.377072,99.496079 Z" id="Fill-49" fill="#828683"></path>
                <polyline id="Fill-50" fill="#828683" points="232.224064 99.3804416 232.224064 92.3584705 233.739347 92.3584705 233.739347 98.0816046 236.204995 98.0816046 236.204995 99.3804416 232.224064 99.3804416"></polyline>
                <path d="M241.095503,99.496079 C239.502723,99.496079 238.138357,98.4573751 238.138357,96.5332022 L238.138357,92.3584705 L239.663836,92.3584705 L239.663836,96.5332022 C239.663836,97.4855337 240.261384,98.1687899 241.095503,98.1687899 C241.950016,98.1687899 242.623022,97.4855337 242.623022,96.5332022 L242.623022,92.3584705 L244.130147,92.3584705 L244.130147,96.5332022 C244.130147,98.4573751 242.706638,99.496079 241.095503,99.496079" id="Fill-51" fill="#828683"></path>
                <polyline id="Fill-52" fill="#828683" points="249.200123 93.6573075 249.200123 99.3804416 247.682801 99.3804416 247.682801 93.6573075 246.308238 93.6573075 246.308238 92.3584705 250.535937 92.3584705 250.535937 93.6573075 249.200123 93.6573075"></polyline>
                <polygon id="Fill-53" fill="#828683" points="252.762974 99.3804416 254.280296 99.3804416 254.280296 92.3584705 252.762974 92.3584705"></polygon>
                <path d="M260.129328,93.5898355 C258.942391,93.5898355 258.118468,94.667356 258.118468,95.8408007 C258.118468,97.130086 259.028046,98.1492799 260.108934,98.1492799 C261.361132,98.1492799 262.119793,97.0240004 262.119793,95.8408007 C262.119793,94.609639 261.33258,93.5898355 260.129328,93.5898355 Z M260.108934,99.496079 C257.967552,99.496079 256.55424,97.8411846 256.55424,95.8408007 C256.55424,93.8202972 257.985907,92.2434428 260.129328,92.2434428 C262.289064,92.2434428 263.684022,93.7534349 263.684022,95.8408007 C263.684022,97.8702463 262.252355,99.496079 260.108934,99.496079 L260.108934,99.496079 Z" id="Fill-54" fill="#828683"></path>
                <path d="M270.679202,99.3804416 L267.626204,95.2922855 C267.540548,95.1672996 267.46509,95.0327619 267.454893,95.0132519 C267.454893,95.0230069 267.473248,95.1959549 267.473248,95.3599607 L267.473248,99.3804416 L265.955926,99.3804416 L265.955926,92.3584705 L267.265228,92.3584705 L270.318226,96.4084196 C270.412039,96.5332022 270.47934,96.6677399 270.487498,96.6970049 C270.487498,96.6872499 270.469143,96.5143019 270.469143,96.3407443 L270.469143,92.3584705 L271.986465,92.3584705 L271.986465,99.3804416 L270.679202,99.3804416" id="Fill-55" fill="#828683"></path>
                <path d="M276.573101,99.496079 C275.616617,99.496079 274.91302,99.1398184 274.250211,98.6203649 L275.037424,97.543454 C275.445306,97.8702463 276.032657,98.1492799 276.601652,98.1492799 C277.293013,98.1492799 277.482678,97.9088599 277.482678,97.4855337 C277.482678,96.7833772 276.222322,96.5429572 275.645169,96.2157584 C274.951769,95.8310457 274.403167,95.3884128 274.403167,94.2728884 C274.403167,92.8297587 275.645169,92.2434428 276.866776,92.2434428 C277.521427,92.2434428 278.30864,92.4259425 278.867438,92.8492687 L278.184236,93.9940581 C277.882403,93.7631899 277.37051,93.5898355 276.866776,93.5898355 C276.165218,93.5898355 275.91845,93.9940581 275.91845,94.2728884 C275.91845,94.9073696 276.801515,95.0998275 277.607082,95.4558849 C278.280088,95.7544284 279,96.2346587 279,97.3894063 C279,98.7166955 278.072068,99.496079 276.573101,99.496079" id="Fill-56" fill="#828683"></path>
                <path d="M233.643494,79.9844615 C233.582312,80.4236395 233.160154,80.7524642 232.715562,80.7524642 C232.61971,80.7524642 232.572803,80.6973891 232.580961,80.6319493 C232.589119,80.5768742 232.61767,80.5226121 232.660498,80.4565626 C232.742074,80.3354381 232.797139,80.1604579 232.815493,80.0291719 C232.842006,79.8426076 232.778784,79.7548126 232.615631,79.7548126 C232.260773,79.7548126 231.981374,80.1271283 231.045284,82.4626369 C231.318565,82.4402817 231.571452,82.4081715 231.708093,82.3532996 C231.832497,82.3087925 231.877364,82.2982246 231.922231,82.2982246 C231.975256,82.2982246 232.003808,82.3309444 231.99361,82.4081715 C231.979335,82.5063311 231.895719,82.6492012 231.783551,82.7591481 C231.636714,82.8684854 231.44093,82.9672547 231.106467,82.9672547 C231.018772,82.9672547 230.933117,82.9672547 230.837264,82.9558739 C230.623126,83.4928051 230.386554,84.1183442 230.103076,84.8418397 C228.518454,88.9086568 227.835251,89.7091762 226.505555,89.7091762 C226.160894,89.7091762 225.912086,89.5449671 225.936559,89.3695804 C225.950835,89.2708111 226.034451,89.215736 226.109909,89.215736 C226.152737,89.215736 226.183328,89.2269136 226.224116,89.2380912 C226.309771,89.2596335 226.360757,89.2708111 226.458648,89.2708111 C227.107181,89.2708111 227.386581,88.7340831 229.733943,82.8794597 L229.648288,82.8794597 C229.560593,82.8794597 229.497371,82.8794597 229.43211,82.8794597 C229.354612,82.8906373 229.311785,82.8906373 229.268957,82.8906373 C229.203696,82.8906373 229.142514,82.8571045 229.156789,82.7591481 C229.171065,82.6492012 229.264878,82.5175087 229.401519,82.4626369 C229.515726,82.429917 229.611578,82.429917 229.731903,82.429917 L229.91545,82.429917 C229.964396,82.3087925 230.013342,82.1777097 230.064327,82.0464237 C230.88825,79.9844615 231.624477,79.2621853 232.770626,79.2621853 C233.353898,79.2621853 233.704677,79.5355284 233.643494,79.9844615" id="Fill-62" fill="#828683"></path>
                <path d="M235.020097,83.4928051 C235.085358,83.0103392 234.971151,82.6707435 234.548993,82.6707435 C233.759741,82.6707435 232.978646,84.1183442 232.799178,85.4228717 C232.715562,86.0256491 232.880754,86.3327282 233.280479,86.3327282 C234.057495,86.3327282 234.826353,84.9070763 235.020097,83.4928051 Z M231.681581,85.0609207 C231.912034,83.3834678 233.168311,82.1777097 234.648924,82.1777097 C235.697181,82.1777097 236.258019,82.901002 236.115261,83.9317799 C235.886847,85.6088263 234.62649,86.8259652 233.145878,86.8259652 C232.120054,86.8259652 231.534743,86.135596 231.681581,85.0609207 L231.681581,85.0609207 Z" id="Fill-63" fill="#828683"></path>
                <path d="M241.162803,82.8906373 C241.111818,83.262953 240.856892,83.6139296 240.728409,83.6139296 C240.675384,83.6139296 240.646832,83.5700321 240.575453,83.4606949 C240.489798,83.3068505 240.359275,83.1530061 240.088034,83.1530061 C239.396673,83.1530061 238.682879,84.1071666 238.270918,85.1485124 C237.763105,86.3987777 237.693765,86.5186829 237.383774,86.6507818 C237.141084,86.7599158 236.851488,86.8259652 236.655705,86.8259652 C236.559852,86.8259652 236.500709,86.782271 236.517025,86.6611464 C236.527222,86.5959099 236.570049,86.4420655 236.710769,86.1134441 C236.990168,85.4228717 237.512257,84.1400897 237.867115,83.2080811 C238.066977,82.6928954 238.136317,82.5719741 238.338219,82.4514593 C238.572751,82.3087925 238.905175,82.1777097 239.229442,82.1777097 C239.315097,82.1777097 239.3722,82.2321751 239.359964,82.3197668 C239.351806,82.3860195 239.286545,82.5392542 239.16418,82.8022327 C239.070367,83.0215168 238.95616,83.3068505 238.809323,83.6576239 C239.323254,82.901002 240.071718,82.1777097 240.634596,82.1777097 C241.077148,82.1777097 241.213789,82.5175087 241.162803,82.8906373" id="Fill-64" fill="#828683"></path>
                <path d="M59.8829657,66.8448129 C59.4907695,67.106277 58.7962657,67.4576142 57.7994336,67.898835 C56.8026014,68.3400558 55.6096891,68.7322461 54.2206607,69.0754179 C52.8316323,69.4185896 51.3200653,69.5901729 49.6859143,69.5901729 C47.8229821,69.5901729 45.8865422,69.3123713 43.8765364,68.75676 C41.8665307,68.2011487 39.9954558,67.2860378 38.2632557,66.0114 C36.5310556,64.7367622 35.1257068,63.0209294 34.0471671,60.86385 C32.9686275,58.7067706 32.4293657,56.0268032 32.4293657,52.8238671 C32.4293657,50.7648368 32.6581434,48.7548612 33.1157057,46.79388 C33.573268,44.8328988 34.284113,42.9945064 35.2482621,41.2786479 C36.2124112,39.5627893 37.4298355,38.0593929 38.9005714,36.7684136 C40.3713074,35.4774343 42.1198227,34.4642758 44.14617,33.7289079 C46.1725173,32.9935399 48.4766357,32.6258614 51.0585943,32.6258614 C53.771285,32.6258614 56.1244272,33.0425637 58.1180914,33.8759807 C60.1117557,34.7093977 61.6968584,35.5673142 62.8734471,36.4497557 L59.24565,42.9699857 C58.5266235,42.3163253 57.5298064,41.6136509 56.2551686,40.8619414 C54.9805308,40.110232 53.4771344,39.6690178 51.7449343,39.5382857 C49.9800512,39.4402367 48.3704366,39.677185 46.9160421,40.2491379 C45.4616477,40.8210907 44.2115409,41.6790071 43.1656843,42.8229129 C42.1198276,43.9668186 41.310935,45.3394848 40.7389821,46.9409529 C40.1670293,48.5424209 39.8810571,50.3236188 39.8810571,52.2846 C39.8810571,53.820702 40.1098349,55.2260508 40.5673971,56.5006886 C41.0249594,57.7753264 41.6867807,58.8701911 42.5528807,59.7853157 C43.4189808,60.7004403 44.481163,61.4112853 45.7394593,61.9178721 C46.9977556,62.424459 48.411275,62.6777486 49.98006,62.6777486 C51.3854299,62.6777486 52.5946835,62.5225066 53.6078571,62.2120179 C54.6210308,61.9015292 55.4707766,61.5583626 56.15712,61.1825079 L56.5758286,60.9510176 C57.0600688,60.6804667 57.4434225,60.4553152 57.7258971,60.2755586 L59.8829657,66.8448129 Z M75.2761929,32.8709829 L82.6298357,32.8709829 L78.21765,68.9528571 L70.8640071,68.9528571 L75.2761929,32.8709829 Z M111.969482,50.5197203 C112.778447,50.7603756 113.554989,51.1198866 114.299126,51.59826 C115.21425,52.1865544 115.965948,52.9872764 116.554243,54.00045 C117.142537,55.0136236 117.43668,56.2882423 117.43668,57.8243443 C117.43668,59.8180085 117.05266,61.5256707 116.284609,62.9473821 C115.516558,64.3690935 114.487059,65.5211527 113.196079,66.4035943 C111.9051,67.2860358 110.450727,67.9315158 108.832918,68.3400536 C107.215108,68.7485913 105.55647,68.9528571 103.856953,68.9528571 L91.8460029,68.9528571 L96.2581886,32.8709829 L106.847434,32.8709829 C110.246468,32.8709829 112.926436,33.5001216 114.887417,34.7584179 C116.848398,36.0167141 117.828874,38.1002255 117.828874,41.0090143 C117.828874,42.2836521 117.64095,43.574612 117.265095,44.8819329 C116.88924,46.1892537 116.251931,47.3576541 115.353148,48.3871693 C114.553986,49.3025724 113.489986,49.9918724 112.161122,50.4550851 L111.969482,50.5197203 L111.969482,50.5197203 Z M105.621827,47.6272929 C106.40622,47.6272929 107.092553,47.4965627 107.680847,47.2350986 C108.269142,46.9736344 108.759379,46.6141266 109.151576,46.1565643 C109.543772,45.699002 109.837915,45.1924228 110.034013,44.6368114 C110.230111,44.0812001 110.328159,43.5092558 110.328159,42.9209614 C110.328159,41.7770557 109.952309,40.9191393 109.2006,40.3471864 C108.448891,39.7752336 107.435732,39.4892614 106.161094,39.4892614 L102.827443,39.4892614 L101.797933,47.6272929 L105.621827,47.6272929 Z M104.102074,62.3345786 C105.24598,62.3345786 106.27548,62.1548247 107.190604,61.7953114 C108.105729,61.4357982 108.841086,60.8965365 109.396697,60.17751 C109.952308,59.4584835 110.23011,58.559714 110.23011,57.4811743 C110.23011,56.5006837 109.960479,55.7489855 109.421209,55.2260571 C108.881939,54.7031288 108.187436,54.3354503 107.337677,54.1230107 C106.487919,53.9105711 105.589149,53.8043529 104.641341,53.8043529 L101.062569,53.8043529 L100.033059,62.3345786 L104.102074,62.3345786 Z M162.14643,32.8709829 L157.734244,68.9528571 L150.380601,68.9528571 L152.1945,54.2945957 L136.555753,54.2945957 L134.741854,68.9528571 L127.388211,68.9528571 L131.800397,32.8709829 L139.15404,32.8709829 L137.389166,47.3331471 L153.027913,47.3331471 L154.792787,32.8709829 L162.14643,32.8709829 Z M194.207914,42.2346214 C192.933276,41.3848629 191.617805,40.6740179 190.261459,40.102065 C188.905114,39.5301121 187.605983,39.2114575 186.364029,39.1460914 C185.579636,39.1134084 184.876962,39.1542616 184.255984,39.2686521 C183.635007,39.3830427 183.087575,39.5791379 182.613671,39.8569436 C182.139767,40.1347492 181.763918,40.5024277 181.486112,40.95999 C181.208306,41.4175523 181.036723,41.956814 180.971357,42.5777914 C180.873308,43.42755 181.110256,44.2037601 181.682209,44.906445 C182.254162,45.6091299 183.038543,46.2546099 184.035375,46.8429043 C184.907603,47.3576619 185.823609,47.8348788 186.783415,48.274566 L187.197441,48.4607057 C188.537445,49.0490001 189.812064,49.784357 191.021336,50.6667986 C192.230607,51.5492401 193.178401,52.7012993 193.864744,54.1230107 C194.551088,55.5447221 194.747183,57.3994557 194.453036,59.6872671 C194.289621,61.059954 193.864748,62.350914 193.178404,63.5601857 C192.492061,64.7694575 191.568779,65.8234691 190.408532,66.7222521 C189.248285,67.6210352 187.867448,68.2991977 186.26598,68.75676 C184.664512,69.2143223 182.850632,69.3777349 180.824284,69.2470029 C179.451597,69.1489538 178.078931,68.9201761 176.706244,68.5606629 C175.333557,68.2011496 173.993574,67.702741 172.686253,67.0654221 C171.378932,66.4281032 170.136996,65.6192106 168.960407,64.63872 L172.784301,59.2950729 C173.536011,59.9487333 174.385757,60.5451894 175.333564,61.0844593 C176.281372,61.6237291 177.245507,62.0567727 178.225997,62.3836029 C179.206488,62.7104331 180.121599,62.9065282 180.971357,62.9718943 C181.821116,63.0045773 182.687203,62.9310416 183.569644,62.751285 C184.452086,62.5715284 185.220125,62.2038499 185.873786,61.6482386 C186.527446,61.0926272 186.919636,60.2919052 187.050369,59.2460486 C187.148418,58.5270221 186.985005,57.8570302 186.560126,57.2360529 C186.135246,56.6150755 185.563302,56.0431312 184.844276,55.5202029 C184.197152,55.0495674 183.470618,54.6186475 182.664657,54.2274329 L182.393061,54.0984986 C181.347205,53.6082533 180.268681,53.0526502 179.157459,52.4316729 C178.046236,51.8106955 177.024907,51.0753385 176.093441,50.22558 C175.161975,49.3758215 174.45113,48.3299805 173.960884,47.0880257 C173.470639,45.8460709 173.339909,44.3753571 173.56869,42.67584 C173.830154,40.5841267 174.516487,38.7947581 175.62771,37.3076807 C176.738933,35.8206033 178.193305,34.693056 179.990871,33.925005 C181.788438,33.156954 183.814754,32.7892756 186.069883,32.8219586 C187.998181,32.9200076 189.656819,33.1732972 191.045848,33.581835 C192.434876,33.9903728 193.6523,34.4887813 194.698157,35.0770757 C195.744014,35.6653701 196.708148,36.3026794 197.59059,36.9890229 L194.207914,42.2346214 Z" id="CIBHS" fill="#1C3A59" fill-rule="nonzero"></path>
            </g>
        </g>
    </g>
</svg>